<?xml version="1.0" encoding="UTF-8" standalone="no"?>
<!-- Created with Inkscape (http://www.inkscape.org/) -->

<svg
   xmlns:dc="http://purl.org/dc/elements/1.1/"
   xmlns:cc="http://creativecommons.org/ns#"
   xmlns:rdf="http://www.w3.org/1999/02/22-rdf-syntax-ns#"
   xmlns:svg="http://www.w3.org/2000/svg"
   xmlns="http://www.w3.org/2000/svg"
   xmlns:sodipodi="http://sodipodi.sourceforge.net/DTD/sodipodi-0.dtd"
   xmlns:inkscape="http://www.inkscape.org/namespaces/inkscape"
   version="1.0"
   width="50.03125"
   height="50.03125"
   id="svg2"
   sodipodi:version="0.32"
   inkscape:version="0.48.2 r9819"
   sodipodi:docname="enemies0.svg"
   inkscape:export-filename="/Users/dgomes/Desktop/space invader.png"
   inkscape:export-xdpi="90"
   inkscape:export-ydpi="90">
  <metadata
     id="metadata23">
    <rdf:RDF>
      <cc:Work
         rdf:about="">
        <dc:format>image/svg+xml</dc:format>
        <dc:type
           rdf:resource="http://purl.org/dc/dcmitype/StillImage" />
        <dc:title />
      </cc:Work>
    </rdf:RDF>
  </metadata>
  <sodipodi:namedview
     inkscape:window-height="688"
     inkscape:window-width="1270"
     inkscape:pageshadow="2"
     inkscape:pageopacity="0.0"
     guidetolerance="10.0"
     gridtolerance="10.0"
     objecttolerance="10.0"
     borderopacity="1.0"
     bordercolor="#666666"
     pagecolor="#ffffff"
     id="base"
     showgrid="false"
     showguides="true"
     inkscape:zoom="1.436841"
     inkscape:cx="287.83977"
     inkscape:cy="-38.062273"
     inkscape:window-x="0"
     inkscape:window-y="25"
     inkscape:current-layer="svg2"
     fit-margin-top="0"
     fit-margin-left="0"
     fit-margin-right="0"
     fit-margin-bottom="0"
     inkscape:window-maximized="0"
     inkscape:guide-bbox="true">
    <sodipodi:guide
       orientation="0,1"
       position="7.6556835,22.967051"
       id="guide3011" />
  </sodipodi:namedview>
  <defs
     id="defs4" />
  <path
     inkscape:connector-curvature="0"
     id="path3035"
     d="m 20.803869,13.946009 -0.189974,4.319404 -4.319404,0.189973 0,4.099435 -4.319403,0.189974 -0.189974,4.319404 -4.1294305,0 0,8.638808 8.6388075,0 0,4.479382 2.239692,0 2.23969,0 0,-4.479382 8.638809,0 0,4.479382 4.479382,0 0,-4.479382 8.798786,0 -0.01,-8.47883 -4.279409,-0.189974 -0.189974,-4.289408 -4.319404,-0.189974 0,-4.099435 -4.319404,-0.189973 -0.189974,-4.319404 -8.578816,0 z m 13.088195,26.23638 0,4.479382 -2.239691,0 -2.239691,0 0,-4.479382 -4.319405,0 -4.319404,0 0,4.479382 -4.479382,0 0,-4.479382 -4.479381,0 0,4.479382 4.449385,0 0.189974,4.319404 4.159426,0 0.189974,-4.319404 8.578817,0 0.189974,4.319404 4.159426,0 0.189974,-4.319404 4.449386,0 0,-4.479382 -4.479382,0 z m 4.479382,4.479382 0,4.479382 4.209419,-0.309958 -0.109984,-4.169424 -2.049718,0 -2.049717,0 z m -26.556336,0 -4.1594265,0 0,4.479382 4.1594265,0 0,-4.479382 z m 4.479381,-17.597572 4.479382,0 0,4.479382 -4.479382,0 0,-4.479382 z m 13.118191,0 4.479382,0 0,4.479382 -4.269411,-0.209971 -0.209971,-4.269411 z"
     style="fill:#ff0000;fill-opacity:1" />
</svg>
