<?xml version="1.0" encoding="UTF-8" standalone="no"?>
<!-- Created with Inkscape (http://www.inkscape.org/) -->

<svg
   xmlns:dc="http://purl.org/dc/elements/1.1/"
   xmlns:cc="http://creativecommons.org/ns#"
   xmlns:rdf="http://www.w3.org/1999/02/22-rdf-syntax-ns#"
   xmlns:svg="http://www.w3.org/2000/svg"
   xmlns="http://www.w3.org/2000/svg"
   xmlns:sodipodi="http://sodipodi.sourceforge.net/DTD/sodipodi-0.dtd"
   xmlns:inkscape="http://www.inkscape.org/namespaces/inkscape"
   version="1.0"
   width="50.03125"
   height="50.03125"
   id="svg2"
   sodipodi:version="0.32"
   inkscape:version="0.48.2 r9819"
   sodipodi:docname="enemies1.svg"
   inkscape:export-filename="/Users/dgomes/Desktop/space invader.png"
   inkscape:export-xdpi="90"
   inkscape:export-ydpi="90">
  <metadata
     id="metadata23">
    <rdf:RDF>
      <cc:Work
         rdf:about="">
        <dc:format>image/svg+xml</dc:format>
        <dc:type
           rdf:resource="http://purl.org/dc/dcmitype/StillImage" />
      </cc:Work>
    </rdf:RDF>
  </metadata>
  <sodipodi:namedview
     inkscape:window-height="688"
     inkscape:window-width="1270"
     inkscape:pageshadow="2"
     inkscape:pageopacity="0.0"
     guidetolerance="10.0"
     gridtolerance="10.0"
     objecttolerance="10.0"
     borderopacity="1.0"
     bordercolor="#666666"
     pagecolor="#ffffff"
     id="base"
     showgrid="false"
     showguides="false"
     inkscape:zoom="1.436841"
     inkscape:cx="4.8347335"
     inkscape:cy="-26.352639"
     inkscape:window-x="80"
     inkscape:window-y="89"
     inkscape:current-layer="svg2"
     fit-margin-top="0"
     fit-margin-left="0"
     fit-margin-right="0"
     fit-margin-bottom="0"
     inkscape:window-maximized="0" />
  <defs
     id="defs4" />
  <path
     style="fill:#ff00ff;fill-rule:evenodd;stroke:none;fill-opacity:1"
     d="m 10.03125,12.34375 c 0,1.572917 0,3.145833 0,4.71875 1.520833,0 3.041667,0 4.5625,0 0,-1.572917 0,-3.145833 0,-4.71875 -1.520833,0 -3.041667,0 -4.5625,0 z m 27.3125,0 c 0,1.572917 0,3.145833 0,4.71875 1.53125,0 3.0625,0 4.59375,0 0,-1.572917 0,-3.145833 0,-4.71875 -1.53125,0 -3.0625,0 -4.59375,0 z m -22.71875,4.75 c 0,1.59375 0,3.1875 0,4.78125 -1.510417,0 -3.020833,0 -4.53125,0 0,1.552083 0,3.104167 0,4.65625 -1.5104167,0 -3.0208333,0 -4.53125,0 0,1.614583 0,3.229167 0,4.84375 -1.5104167,0 -3.0208333,0 -4.53125,0 0,4.635417 0,9.270833 0,13.90625 1.5104167,0 3.0208333,0 4.53125,0 0,-3.114583 0,-6.229167 0,-9.34375 1.5104167,0 3.0208333,0 4.53125,0 0,3.114583 0,6.229167 0,9.34375 1.510417,0 3.020833,0 4.53125,0 0,-1.5625 0,-3.125 0,-4.6875 1.861606,-0.0031 3.756558,0.02712 5.531652,-0.0625 4.2082,0 8.416399,0 12.624598,0 0,-6.21875 0,-12.4375 0,-18.65625 -4.53125,0 -9.0625,0 -13.59375,0 0,-1.59375 0,-3.1875 0,-4.78125 -1.520833,0 -3.041667,0 -4.5625,0 z m 0,28.1875 c 0,1.5625 0,3.125 0,4.6875 3.052083,0 6.104167,0 9.15625,0 0,-1.5625 0,-3.125 0,-4.6875 -3.052083,0 -6.104167,0 -9.15625,0 z m 18.1875,-28.1875 c 0,3.125 0,6.25 0,9.375 1.510417,0 3.020833,0 4.53125,0 0,-3.125 0,-6.25 0,-9.375 -1.510417,0 -3.020833,0 -4.53125,0 z m 4.5625,4.8125 c 0,3.135417 0,6.270833 0,9.40625 -1.520833,0 -3.041667,0 -4.5625,0 0,3.09375 0,6.1875 0,9.28125 1.520833,0 3.041667,0 4.5625,0 0,1.5625 0,3.125 0,4.6875 1.5,0 3,0 4.5,0 0,-3.114583 0,-6.229167 0,-9.34375 1.520833,0 3.041667,0 4.5625,0 0,3.114583 0,6.229167 0,9.34375 1.510417,0 3.020833,0 4.53125,0 0,-4.635417 0,-9.270833 0,-13.90625 -1.510417,0 -3.020833,0 -4.53125,0 0,-1.614583 0,-3.229167 0,-4.84375 -1.520833,0 -3.041667,0 -4.5625,0 0,-1.541667 0,-3.083333 0,-4.625 -1.5,0 -3,0 -4.5,0 z m -22.75,4.5625 c 1.510417,0 3.020833,0 4.53125,0 0,1.614583 0,3.229167 0,4.84375 -1.510417,0 -3.020833,0 -4.53125,0 0,-1.614583 0,-3.229167 0,-4.84375 z M 28.1875,45.3125 c 0,1.552083 0,3.104167 0,4.65625 3.052083,0 6.104167,0 9.15625,0 0,-1.552083 0,-3.104167 0,-4.65625 -3.052083,0 -6.104167,0 -9.15625,0 z"
     id="rect1874"
     inkscape:connector-curvature="0" />
</svg>
