<?xml version="1.0" encoding="UTF-8" standalone="no"?>
<svg
   xmlns:dc="http://purl.org/dc/elements/1.1/"
   xmlns:cc="http://creativecommons.org/ns#"
   xmlns:rdf="http://www.w3.org/1999/02/22-rdf-syntax-ns#"
   xmlns:svg="http://www.w3.org/2000/svg"
   xmlns="http://www.w3.org/2000/svg"
   xmlns:sodipodi="http://sodipodi.sourceforge.net/DTD/sodipodi-0.dtd"
   xmlns:inkscape="http://www.inkscape.org/namespaces/inkscape"
   version="1.0"
   width="50"
   height="50"
   inkscape:version="0.48.3.1 r9886"
   inkscape:export-filename="/Users/dgomes/Desktop/space invader.png"
   inkscape:export-xdpi="90"
   inkscape:export-ydpi="90"
   id="svg2995"
   sodipodi:docname="enemies0.svg">
  <sodipodi:namedview
     pagecolor="#ffffff"
     bordercolor="#666666"
     borderopacity="1"
     objecttolerance="10"
     gridtolerance="10"
     guidetolerance="10"
     inkscape:pageopacity="0"
     inkscape:pageshadow="2"
     inkscape:window-width="706"
     inkscape:window-height="480"
     id="namedview3003"
     showgrid="false"
     inkscape:zoom="4.72"
     inkscape:cx="54.34322"
     inkscape:cy="21.398306"
     inkscape:window-x="0"
     inkscape:window-y="0"
     inkscape:window-maximized="0"
     inkscape:current-layer="svg2995" />
  <metadata
     id="metadata2997">
    <rdf:RDF>
      <cc:Work
         rdf:about="">
        <dc:format>image/svg+xml</dc:format>
        <dc:type
           rdf:resource="http://purl.org/dc/dcmitype/StillImage" />
        <dc:title />
      </cc:Work>
    </rdf:RDF>
  </metadata>
  <defs
     id="defs2999" />
  <path
     inkscape:connector-curvature="0"
     d="m 16.8 14.3 -0.2 4.3 -12.5 0.2 0 4.3 -3.9 0 0 13 12 0.2 0.3 4 -4.1 -0.2 -0.2 4.7 -8.2 0 0 4.5 8.2 0 0 -4.4 8.4 -0.2 0.2 -4.3 4.1 0 0 -4.1 8.2 0 0 2 0 2 4.1 0 0.2 4.3 8.4 0.2 0 4.4 8.2 0 0 -4.5 -8.2 0 -0.2 -4.7 -4.1 0 -0 -3.7 12.3 -0.4 0 -13 -3.9 0.1 0 -4.3 -12.5 -0.2 -0.2 -4.3 -16.3 0 z m 12.3 26.1 -8.2 0 0 4.5 8.2 0 z m 0 -13 8.2 0 0.2 4.3 -8.4 0.2 z m -16.6 0.2 8.2 0 0.2 4.3 -8.5 -0 z"
     style="fill:#ffffff;fill-opacity:1"
     id="path3001" />
</svg>
